<svg width="35" height="34" viewBox="0 0 35 34" fill="none" xmlns="http://www.w3.org/2000/svg">
<path d="M34.007 10.5198L32.936 9.45097C32.4696 8.94703 31.7451 8.77296 31.1 9.00987C30.5605 9.22936 29.9825 9.33895 29.4 9.33222C27.0528 9.33222 25.15 7.43329 25.15 5.09085C25.1432 4.5095 25.2531 3.93267 25.473 3.3943C25.7417 2.73127 25.5649 1.97125 25.031 1.49417L23.96 0.425347C23.6327 0.136633 23.2065 -0.0152489 22.77 0.00121071H20.764C20.318 0.00308476 19.8906 0.179782 19.574 0.493209L0.993 19.0365C0.678935 19.3525 0.501878 19.779 0.5 20.224V22.226C0.501878 22.671 0.678935 23.0976 0.993 23.4136L2.064 24.4824C2.53036 24.9863 3.25492 25.1604 3.9 24.9235C4.43946 24.704 5.01747 24.5944 5.6 24.6011C7.94721 24.6011 9.85 26.5001 9.85 28.8425C9.85675 29.4238 9.74693 30.0007 9.527 30.539C9.25826 31.2021 9.43506 31.9621 9.969 32.4392L11.04 33.508C11.3566 33.8214 11.784 33.9981 12.23 34H14.236C14.682 33.9981 15.1094 33.8214 15.426 33.508L34.007 14.8969C34.3211 14.5809 34.4981 14.1544 34.5 13.7093V11.7074C34.4981 11.2623 34.3211 10.8358 34.007 10.5198ZM17.5 20.3598C15.6222 20.3598 14.1 18.8406 14.1 16.9667C14.1 15.0927 15.6222 13.5736 17.5 13.5736C19.3778 13.5736 20.9 15.0927 20.9 16.9667C20.9 18.8406 19.3778 20.3598 17.5 20.3598Z" fill="#B40303"/>
</svg>
